HIERARCHY
ROOT hips
{
  OFFSET 0 10.6860622 2.3727825e-15
  CHANNELS 6 Xposition Yposition Zposition Yrotation Xrotation Zrotation
  JOINT leftUpperLeg
  {
    OFFSET 0.6642549969 -0.9402397400000004 0
    CHANNELS 3 Yrotation Xrotation Zrotation
    JOINT leftLowerLeg
    {
      OFFSET 0 -3.997221335632195 0
      CHANNELS 3 Yrotation Xrotation Zrotation
      JOINT leftFoot
      {
        OFFSET -0.13777839790000004 -4.6145792000000005 -0.22186036399999998
        CHANNELS 3 Yrotation Xrotation Zrotation
        JOINT leftToes
        {
          OFFSET -0.03777410834999995 -0.9130806927000008 0.85230013
          CHANNELS 3 Yrotation Xrotation Zrotation
          End Site
          {
            OFFSET -0.03777410834999995 -0.9130806927000008 0.85230013
          }
        }
      }
    }
  }
  JOINT rightUpperLeg
  {
    OFFSET -0.6642778626 -0.9402397400000004 0
    CHANNELS 3 Yrotation Xrotation Zrotation
    JOINT rightLowerLeg
    {
      OFFSET 0 -3.997221452859387 0
      CHANNELS 3 Yrotation Xrotation Zrotation
      JOINT rightFoot
      {
        OFFSET 0.1377926176 -4.6145792000000005 -0.22185782299999995
        CHANNELS 3 Yrotation Xrotation Zrotation
        JOINT rightToes
        {
          OFFSET 0.037780746850000047 -0.9130806927000008 0.85230167
          CHANNELS 3 Yrotation Xrotation Zrotation
          End Site
          {
            OFFSET 0.037780746850000047 -0.9130806927000008 0.85230167
          }
        }
      }
    }
  }
  JOINT spine
  {
    OFFSET 0 0.13988381660000015 0
    CHANNELS 3 Yrotation Xrotation Zrotation
    JOINT chest
    {
      OFFSET 0 0.6191039003973773 0
      CHANNELS 3 Yrotation Xrotation Zrotation
      JOINT upperChest
      {
        OFFSET 0 0.9855186130586943 0
        CHANNELS 3 Yrotation Xrotation Zrotation
        JOINT leftShoulder
        {
          OFFSET 0.1807663869 1.5087829790000005 0
          CHANNELS 3 Yrotation Xrotation Zrotation
          JOINT leftUpperArm
          {
            OFFSET 0.5985063006419806 0 0
            CHANNELS 3 Yrotation Xrotation Zrotation
            JOINT leftLowerArm
            {
              OFFSET 2.2993332369501065 0 0
              CHANNELS 3 Yrotation Xrotation Zrotation
              JOINT leftHand
              {
                OFFSET 2.395047042602395 0 0
                CHANNELS 3 Yrotation Xrotation Zrotation
                JOINT leftIndexProximal
                {
                  OFFSET 0.5766295810000004 0.04556643899499946 0.17265095988184
                  CHANNELS 3 Yrotation Xrotation Zrotation
                  JOINT leftIndexIntermediate
                  {
                    OFFSET 0.2957229000000008 -0.019352197700001517 -0.007932640616999987
                    CHANNELS 3 Yrotation Xrotation Zrotation
                    JOINT leftIndexDistal
                    {
                      OFFSET 0.19008243099999922 -0.012484908149998475 -0.002786250786000012
                      CHANNELS 3 Yrotation Xrotation Zrotation
                      End Site
                      {
                        OFFSET 0.19008243099999922 -0.012484908149998475 -0.002786250786000012
                      }
                    }
                  }
                }
                JOINT leftMiddleProximal
                {
                  OFFSET 0.5834975091000001 0.0524350405149987 0.02204081888183999
                  CHANNELS 3 Yrotation Xrotation Zrotation
                  JOINT leftMiddleIntermediate
                  {
                    OFFSET 0.33880573540000003 -0.019871473270000717 -0.00000971183179999946
                    CHANNELS 3 Yrotation Xrotation Zrotation
                    JOINT leftMiddleDistal
                    {
                      OFFSET 0.20676022730000088 -0.012221336379999448 0.0001471936708000235
                      CHANNELS 3 Yrotation Xrotation Zrotation
                      End Site
                      {
                        OFFSET 0.20676022730000088 -0.012221336379999448 0.0001471936708000235
                      }
                    }
                  }
                }
                JOINT leftLittleProximal
                {
                  OFFSET 0.5344154683999995 -0.012880921405001189 -0.24414037221816004
                  CHANNELS 3 Yrotation Xrotation Zrotation
                  JOINT leftLittleIntermediate
                  {
                    OFFSET 0.21758961730000093 -0.011650919939999227 0.011893592810000034
                    CHANNELS 3 Yrotation Xrotation Zrotation
                    JOINT leftLittleDistal
                    {
                      OFFSET 0.1475273964999999 -0.008152365682999818 0.006001092492999946
                      CHANNELS 3 Yrotation Xrotation Zrotation
                      End Site
                      {
                        OFFSET 0.1475273964999999 -0.008152365682999818 0.006001092492999946
                      }
                    }
                  }
                }
                JOINT leftRingProximal
                {
                  OFFSET 0.5799399463000003 0.026911854694997794 -0.12150566991816003
                  CHANNELS 3 Yrotation Xrotation Zrotation
                  JOINT leftRingIntermediate
                  {
                    OFFSET 0.26167887460000006 -0.013480186499999602 0.010996293000000053
                    CHANNELS 3 Yrotation Xrotation Zrotation
                    JOINT leftRingDistal
                    {
                      OFFSET 0.17667108799999987 -0.008990287899999228 0.0055541023999999065
                      CHANNELS 3 Yrotation Xrotation Zrotation
                      End Site
                      {
                        OFFSET 0.17667108799999987 -0.008990287899999228 0.0055541023999999065
                      }
                    }
                  }
                }
                JOINT leftThumbProximal
                {
                  OFFSET 0.11018806699999972 -0.09448718900500053 0.17047963138184
                  CHANNELS 3 Yrotation Xrotation Zrotation
                  JOINT leftThumbIntermediate
                  {
                    OFFSET 0.31062601459999983 -0.08126270900000132 0.15443142000000007
                    CHANNELS 3 Yrotation Xrotation Zrotation
                    JOINT leftThumbDistal
                    {
                      OFFSET 0.21627175790000086 -0.08833193599999878 0.018771167799999988
                      CHANNELS 3 Yrotation Xrotation Zrotation
                      End Site
                      {
                        OFFSET 0.21627175790000086 -0.08833193599999878 0.018771167799999988
                      }
                    }
                  }
                }
              }
            }
          }
        }
        JOINT neck
        {
          OFFSET 0 1.5463305265074576 0
          CHANNELS 3 Yrotation Xrotation Zrotation
          JOINT head
          {
            OFFSET 0 0.8456443600000344 0
            CHANNELS 3 Yrotation Xrotation Zrotation
            JOINT leftEye
            {
              OFFSET 0.30408573140000006 0.5104519199999995 0.1276382305
              CHANNELS 3 Yrotation Xrotation Zrotation
              End Site
              {
                OFFSET 0.30408573140000006 0.5104519199999995 0.1276382305
              }
            }
            JOINT rightEye
            {
              OFFSET -0.30409491089999996 0.5104519199999995 0.1276379445
              CHANNELS 3 Yrotation Xrotation Zrotation
              End Site
              {
                OFFSET -0.30409491089999996 0.5104519199999995 0.1276379445
              }
            }
            JOINT jaw
            {
              OFFSET -3.155239131000001e-7 -0.11984121820000082 0.60178107
              CHANNELS 3 Yrotation Xrotation Zrotation
              End Site
              {
                OFFSET -3.155239131000001e-7 -0.11984121820000082 0.60178107
              }
            }
          }
        }
        JOINT rightShoulder
        {
          OFFSET -0.1807303465 1.5087829790000005 0
          CHANNELS 3 Yrotation Xrotation Zrotation
          JOINT rightUpperArm
          {
            OFFSET -0.5985063796536958 0 0
            CHANNELS 3 Yrotation Xrotation Zrotation
            JOINT rightLowerArm
            {
              OFFSET -2.2993322059002854 0 0
              CHANNELS 3 Yrotation Xrotation Zrotation
              JOINT rightHand
              {
                OFFSET -2.395045314457259 0 0
                CHANNELS 3 Yrotation Xrotation Zrotation
                JOINT rightIndexProximal
                {
                  OFFSET -0.5764487688300002 0.0441371204405987 0.17361932004999997
                  CHANNELS 3 Yrotation Xrotation Zrotation
                  JOINT rightIndexIntermediate
                  {
                    OFFSET -0.29573011380000047 -0.01934826376999843 -0.007698921482999974
                    CHANNELS 3 Yrotation Xrotation Zrotation
                    JOINT rightIndexDistal
                    {
                      OFFSET -0.19008373999999884 -0.012503266380000655 -0.0026365778999999897
                      CHANNELS 3 Yrotation Xrotation Zrotation
                      End Site
                      {
                        OFFSET -0.19008373999999884 -0.012503266380000655 -0.0026365778999999897
                      }
                    }
                  }
                }
                JOINT rightMiddleProximal
                {
                  OFFSET -0.5834852037300005 0.05211639405060153 0.02307162440000001
                  CHANNELS 3 Yrotation Xrotation Zrotation
                  JOINT rightMiddleIntermediate
                  {
                    OFFSET -0.33880114510000003 -0.019952774050000954 0.0002455003561999819
                    CHANNELS 3 Yrotation Xrotation Zrotation
                    JOINT rightMiddleDistal
                    {
                      OFFSET -0.20675694929999955 -0.012273788999999091 0.00030209124000002766
                      CHANNELS 3 Yrotation Xrotation Zrotation
                      End Site
                      {
                        OFFSET -0.20675694929999955 -0.012273788999999091 0.00030209124000002766
                      }
                    }
                  }
                }
                JOINT rightLittleProximal
                {
                  OFFSET -0.5346811737299992 -0.011214256288399227 -0.24363941305000003
                  CHANNELS 3 Yrotation Xrotation Zrotation
                  JOINT rightLittleIntermediate
                  {
                    OFFSET -0.21757715980000092 -0.011771559690000988 0.01201554387
                    CHANNELS 3 Yrotation Xrotation Zrotation
                    JOINT rightLittleDistal
                    {
                      OFFSET -0.1475201849000004 -0.00822055339600003 0.006082065407000015
                      CHANNELS 3 Yrotation Xrotation Zrotation
                      End Site
                      {
                        OFFSET -0.1475201849000004 -0.00822055339600003 0.006082065407000015
                      }
                    }
                  }
                }
                JOINT rightRingProximal
                {
                  OFFSET -0.5800810755299999 0.027657985680600072 -0.12066365025000003
                  CHANNELS 3 Yrotation Xrotation Zrotation
                  JOINT rightRingIntermediate
                  {
                    OFFSET -0.26166445029999974 -0.013623118409999302 0.011164098990000045
                    CHANNELS 3 Yrotation Xrotation Zrotation
                    JOINT rightRingDistal
                    {
                      OFFSET -0.17666387530000027 -0.009072900100000503 0.005668185599999959
                      CHANNELS 3 Yrotation Xrotation Zrotation
                      End Site
                      {
                        OFFSET -0.17666387530000027 -0.009072900100000503 0.005668185599999959
                      }
                    }
                  }
                }
                JOINT rightThumbProximal
                {
                  OFFSET -0.10997596379000074 -0.09577489355940072 0.16989765924999997
                  CHANNELS 3 Yrotation Xrotation Zrotation
                  JOINT rightThumbIntermediate
                  {
                    OFFSET -0.31036620999999986 -0.08229339117999834 0.15440884469999996
                    CHANNELS 3 Yrotation Xrotation Zrotation
                    JOINT rightThumbDistal
                    {
                      OFFSET -0.21631306399999906 -0.08825326400000111 0.018656797720000014
                      CHANNELS 3 Yrotation Xrotation Zrotation
                      End Site
                      {
                        OFFSET -0.21631306399999906 -0.08825326400000111 0.018656797720000014
                      }
                    }
                  }
                }
              }
            }
          }
        }
      }
    }
  }
}
MOTION
Frames: 8
Frame Time: 0.03333333333333333
0 11.682712981546562 0 0 0 0 0 0 -5.826343164929014 -0.3712483961610101 -3.6333298826370974 5.838118207697276 0 0 0 0 0 0 0 0 5.826343164929014 0.3712483961610101 -3.6333298826370974 -5.838118207697276 0 0 0 0 0 0 0 -4.610651315171937 0 0 3.0831277533083026 0 0 0 0 0 1.5275236235667615 0 0 0 0 0 0 0 0 0 0 0 0 0 0 0 0 0 0 0 0 0 0 0 0 0 0 0 0 0 0 0 0 0 0 0 0 0 0 0 0 0 0 0 0 0 0 0 0 0 0 0 0 0 0 0 0 1.5275236235667615 0 0 0 0 0 0 0 0 0 0 0 0 0 0 1.5275236235667615 0 0 0 0 0 0 0 0 0 0 0 0 0 0 0 0 0 0 0 0 0 0 0 0 0 0 0 0 0 0 0 0 0 0 0 0 0 0 0 0 0 0 0 0 0 0 0 0 0 0 0 0 0 0 0
0 0 0 0 15.99698924723037 0 10.734332864731755 -11.763786900365046 -5.46119529377145 15.784620410475542 78.04781747319666 23.34443655147932 50.82846606089453 63.82705897144223 30.095704720232895 0 0 0 -10.654718650034829 -11.91584758218536 5.636665914293923 -39.98748306556374 83.17820628556382 -46.503770596351785 -6.524262652923825 35.31695226121092 8.737206455600992 0 0 0 -0.07838919767378137 -12.946821324402771 -0.5303320831617024 -1.0835884361792438 43.73206638205912 -1.437559261164273 0 0 0 3.399186218453835 -1.227541013659215 2.905178502460692 2.18947136273391 0.9496515105735518 -77.91756885361616 13.740020459219942 4.4700079089300715 -22.660771912866746 -28.858479352446114 2.352733885052819 0.013980073567918553 0 0 0 0 0 0 0 0 0 0 0 0 0 0 0 0 0 0 0 0 0 0 0 0 0 0 0 0 0 0 0 0 0 0 0 0 0 0 0 0 0 0 0 0 0 0 8.524348324908225 0 0 17.998348714436776 0 0 0 0 0 0 0 0 0 0 -5.073933065944943 0.6726475181359215 11.761073430962668 -2.570578770102661 2.959110804235443 70.62632677940492 -6.836429466129787 2.6703180762289183 10.257310362101423 26.022646825473515 -0.7256020768148977 5.460865667430662 0 0 0 0 0 0 0 0 0 0 0 0 0 0 0 0 0 0 0 0 0 0 0 0 0 0 0 0 0 0 0 0 0 0 0 0 0 0 0 0 0 0 0 0 0
0 0 -0.020378488375727793 0 16.773234667725188 0 10.85340631629523 -12.80716632776364 -5.644869151413898 16.36534417254871 78.32407969319412 23.937922280283093 50.82843948272724 63.82689637861375 30.095785934659915 0 0 0 -10.786938203446555 -12.956386157031956 5.809716632555397 -40.1288512176467 83.19421054129086 -46.646010787735655 -6.524294591433951 35.3168476278702 8.73700595851521 0 0 0 -0.07808536297682704 -12.005214979624103 -0.5316384666887801 -1.0212881111734127 39.95195169761965 -1.344454093218603 0 0 0 3.7257181952533425 0.6727833842320766 3.343720799916855 2.1895290887841043 0.949704345075381 -77.9173824246213 14.07411008724373 4.581096827190413 -23.070684784436697 -28.79167808653252 2.9039730208475425 0.08148790623388101 0 0 0 0 0 0 0 0 0 0 0 0 0 0 0 0 0 0 0 0 0 0 0 0 0 0 0 0 0 0 0 0 0 0 0 0 0 0 0 0 0 0 0 0 0 0 8.135838871795896 0 0 17.00189363163027 0 0 0 0 0 0 0 0 0 0 -5.2704049935681665 2.6059243853309724 10.831815378035213 -2.6196761276219545 3.038596276007105 71.02164526318195 -7.02670746695514 2.694986298615261 10.56056596196959 25.93163509068242 -0.1865441349845761 5.463965693850152 0 0 0 0 0 0 0 0 0 0 0 0 0 0 0 0 0 0 0 0 0 0 0 0 0 0 0 0 0 0 0 0 0 0 0 0 0 0 0 0 0 0 0 0 0
0 0 -0.04075670835918428 0 17.55005556758206 0 10.976607543266661 -13.8516045238601 -5.831829134931528 16.97443881777589 78.59908024658083 24.559771397750705 50.828405569160275 63.82672604427657 30.09586071599859 0 0 0 -10.923168023504013 -13.997959856405583 5.986241516874303 -40.27067789010606 83.21013679951288 -46.788713288445734 -6.524326529860165 35.31673880933946 8.736804309126349 0 0 0 -0.077804388907858 -11.062583747764243 -0.5329365693301414 -0.9688213358415969 36.098374640815805 -1.259591472367259 0 0 0 4.068814575973288 2.5798058957652312 3.7957396095517573 2.1895868148367383 0.9497574997871275 -77.91720339036813 14.407575746941573 4.694606755315738 -23.48016309723223 -28.72416374634333 3.455342550608655 0.1497010605966815 0 0 0 0 0 0 0 0 0 0 0 0 0 0 0 0 0 0 0 0 0 0 0 0 0 0 0 0 0 0 0 0 0 0 0 0 0 0 0 0 0 0 0 0 0 0 7.747256758485902 0 0 16.00421727987175 0 0 0 0 0 0 0 0 0 0 -5.5001362244094105 4.546976852218132 9.888469379633284 -2.668235734993718 3.118435389018236 71.41701504091745 -7.2168852843899955 2.7206640376501388 10.863793962326547 25.840618577586675 0.35271450386197895 5.4662105976985575 0 0 0 0 0 0 0 0 0 0 0 0 0 0 0 0 0 0 0 0 0 0 0 0 0 0 0 0 0 0 0 0 0 0 0 0 0 0 0 0 0 0 0 0 0
0 0 -0.06113519673491208 0 18.327383495686263 0 11.10407442651488 -14.896913457021345 -6.022220733010232 17.613816713038904 78.87273346893606 25.211902090767556 50.828371100036215 63.8265634533704 30.095938845777482 0 0 0 -11.06353100697638 -15.040369284953869 6.16638269429231 -40.41325221661911 83.22601346684053 -46.932157554249976 -6.5243595077560235 35.31663417627491 8.736604448824629 0 0 0 -0.0775459967904028 -10.119056894634806 -0.5342268272715043 -0.9247622938323579 32.178122823714716 -1.181419394918565 0 0 0 4.429270915338003 4.492212428126113 4.2621569164204445 2.189644540891812 0.949810334290577 -77.9170169613536 14.740380909187605 4.81052774010554 -23.889171787133094 -28.655927096830677 4.006815905855887 0.21863216506313346 0 0 0 0 0 0 0 0 0 0 0 0 0 0 0 0 0 0 0 0 0 0 0 0 0 0 0 0 0 0 0 0 0 0 0 0 0 0 0 0 0 0 0 0 0 0 7.358613611568155 0 0 15.005481878509569 0 0 0 0 0 0 0 0 0 0 -5.764175347470947 6.493878336781222 8.929290335154613 -2.7162548416640404 3.198621750763872 71.81242461108059 -7.406954577489843 2.7473500805643667 11.166981744838118 25.749583529685864 0.8921481353532745 5.467598815721724 0 0 0 0 0 0 0 0 0 0 0 0 0 0 0 0 0 0 0 0 0 0 0 0 0 0 0 0 0 0 0 0 0 0 0 0 0 0 0 0 0 0 0 0 0
0 0 -0.08151368511063987 0 19.105132502534122 0 11.23593197926378 -15.942889436341593 -6.2161948718191224 18.28564409056848 79.14494530048637 25.896472971164684 50.82831562322073 63.82638537869313 30.095989722497624 0 0 0 -11.208169279018595 -16.08342127649541 6.350287300561724 -40.556498583629256 83.24186921716134 -47.0762775233664 -6.52439192157429 35.3165337286603 8.736401367843223 0 0 0 -0.07730883404576894 -9.174758911193724 -0.5355109134762404 -0.8879991002820042 28.198857822939303 -1.1086839850797179 0 0 0 4.807955299216592 6.408645981717414 4.743958805679399 2.189700856545568 0.9498629553220883 -77.91684544184915 15.072503333386305 4.928845191570339 -24.297688577028897 -28.586950819882038 4.558364129032706 0.2882916144601399 0 0 0 0 0 0 0 0 0 0 0 0 0 0 0 0 0 0 0 0 0 0 0 0 0 0 0 0 0 0 0 0 0 0 0 0 0 0 0 0 0 0 0 0 0 0 6.969915820759499 0 0 14.00583336284485 0 0 0 0 0 0 0 0 0 0 -6.063689411080872 8.44462987092445 7.952458348074772 -2.763729740360502 3.2791487573954727 72.20784416372382 -7.596909554436855 2.775043859359118 11.470129062436566 25.65851764140405 1.4317303921686326 5.468130779639923 0 0 0 0 0 0 0 0 0 0 0 0 0 0 0 0 0 0 0 0 0 0 0 0 0 0 0 0 0 0 0 0 0 0 0 0 0 0 0 0 0 0 0 0 0
0 0 -0.10189217348636767 0 19.88324758595217 0 11.372320449227697 -16.989323526500872 -6.413905569727161 18.992198884825594 79.41557514151413 26.615770836387654 50.828293159592455 63.82623053206302 30.096077023430936 0 0 0 -11.357226843455381 -17.126912182948914 6.538109108581385 -40.70042109036306 83.25767481644188 -47.221069296497646 -6.5244229086230945 35.31641653993427 8.736202305549412 0 0 0 -0.07709374763381655 -8.229817741270702 -0.5367884000014427 -0.8576658992697866 24.16905186331178 -1.0403658871075518 0 0 0 5.2058073511904315 8.3277087181578 5.242197837592452 2.189758582602103 0.9499157898271502 -77.91665972780457 15.403913363849378 5.049547594861941 -24.705691348582967 -28.517239859652427 5.109960548811648 0.35869185242765833 0 0 0 0 0 0 0 0 0 0 0 0 0 0 0 0 0 0 0 0 0 0 0 0 0 0 0 0 0 0 0 0 0 0 0 0 0 0 0 0 0 0 0 0 0 0 6.58117359020599 0 0 13.00541804971038 0 0 0 0 0 0 0 0 0 0 -6.3999600380356965 10.397156534374457 6.956052908957492 -2.8106571831562452 3.3600113040182182 72.60327687843005 -7.786739746861472 2.803745023597117 11.773219391365954 25.567411697640416 1.9714364319054265 5.467803914659772 0 0 0 0 0 0 0 0 0 0 0 0 0 0 0 0 0 0 0 0 0 0 0 0 0 0 0 0 0 0 0 0 0 0 0 0 0 0 0 0 0 0 0 0 0
0 0 -0.12227039346982416 0 20.661648705162587 0 11.513399678875517 -18.036032901033977 -6.615521320588752 19.73600132678337 79.68454440502063 27.372309223042166 50.82824968838998 63.826060201753336 30.0961409538691 0 0 0 -11.510857958647415 -18.170648357759706 6.730013458542321 -40.84501322585119 83.27342991400835 -47.36653237606499 -6.524456881599046 35.31631609258998 8.735998708544864 0 0 0 -0.07690043494234677 -7.284363416445629 -0.5380607121677673 -0.8330817739563755 20.097883789833816 -0.9756067843584164 0 0 0 5.623839631533677 10.24795572591275 5.757992339723324 2.1898163086610776 0.9499689445421488 -77.9164815285142 15.734572239735487 5.172618799770614 -25.113130602400737 -28.44675919733391 5.661573680627887 0.4298431684701929 0 0 0 0 0 0 0 0 0 0 0 0 0 0 0 0 0 0 0 0 0 0 0 0 0 0 0 0 0 0 0 0 0 0 0 0 0 0 0 0 0 0 0 0 0 0 6.192394486843822 0 0 12.004392742662915 0 0 0 0 0 0 0 0 0 0 -6.774398275898166 12.349308660158707 5.938059001228778 -2.8570323861144176 3.4412047160658785 72.9987367955471 -7.976435145237949 2.8334500212778124 12.07624731587105 25.47624873694194 2.5112406155315043 5.466618163374903 0 0 0 0 0 0 0 0 0 0 0 0 0 0 0 0 0 0 0 0 0 0 0 0 0 0 0 0 0 0 0 0 0 0 0 0 0 0 0 0 0 0 0 0 0
